<svg xmlns="http://www.w3.org/2000/svg" xmlns:xlink="http://www.w3.org/1999/xlink" style="width: 100%; height: 100%" viewBox="0 0 38 38" preserveAspectRatio="none" width="38" height="38"><defs><svg width="38" height="38" fill="none" xmlns="http://www.w3.org/2000/svg" id="svg-1882691997_888"><path d="m18.181 7.427 3.305-2.16a3.162 3.162 0 0 1 3.464 0l2.03 1.327a2.823 2.823 0 0 1 1.275 2.363 2.82 2.82 0 0 0 1.573 2.534l1.633.8c1.811.889 2.357 3.228 1.127 4.836l-2.654 3.47M18.18 7.427l-7.83 1.181c-1.712.259-2.904 1.848-2.684 3.577l.443 3.473M18.18 7.427l3.358 4.116m8.395 9.054 2.007 3.445a3.22 3.22 0 0 1-.68 4.06l-4.204 3.607a3.175 3.175 0 0 1-1.082.609l-2.373.775a3.167 3.167 0 0 1-3.44-1.013l-1.98-2.428m11.752-9.055-4.198.823M8.108 15.658l-1.57.77a3.206 3.206 0 0 0-1.788 2.88v1.303a3.01 3.01 0 0 0 1.36 2.521 3.007 3.007 0 0 1 1.334 2.138l.465 3.642a3.204 3.204 0 0 0 1.55 2.358l1.28.753a3.16 3.16 0 0 0 3.151.033l4.291-2.404M8.108 15.658l1.18 1.158c.803.787 2.01.983 3.017.489m5.876 12.347-1.679-1.646" stroke="#737373" stroke-width="3.167px" stroke-linecap="round" stroke-linejoin="round" data-darkreader-inline-stroke="" style="--darkreader-inline-stroke: #9f978b;" fill="none"></path></svg></defs><use href="#svg-1882691997_888"></use></svg>