<svg xmlns="http://www.w3.org/2000/svg" xmlns:xlink="http://www.w3.org/1999/xlink" style="width: 100%; height: 100%" viewBox="0 0 38 38" preserveAspectRatio="none" width="38" height="38"><defs><svg width="38" height="38" fill="none" xmlns="http://www.w3.org/2000/svg" id="svg1069956022_548"><path d="m12.04 12.88-1.164-6.339 1.028-.85c2.24-1.852 5.67-.844 6.515 1.914m5.554 15.224c1.574-1.262 3.89-1.064 5.21.454a3.65 3.65 0 0 1-.473 5.253l-2.806 2.262c-4.668 3.76-11.535 3.125-15.41-1.426-3.91-4.592-3.303-11.44 1.357-15.293l9.884-8.173a3.685 3.685 0 0 1 5.14.443 3.56 3.56 0 0 1-.45 5.065l-5.9 4.88.932-.77a3.685 3.685 0 0 1 5.14.442 3.56 3.56 0 0 1-.45 5.066l-.932.77" stroke="#737373" stroke-width="3.167px" stroke-linecap="round" stroke-linejoin="round" data-darkreader-inline-stroke="" style="--darkreader-inline-stroke: #9f978b;" fill="none"></path></svg></defs><use href="#svg1069956022_548"></use></svg>