<svg xmlns="http://www.w3.org/2000/svg" xmlns:xlink="http://www.w3.org/1999/xlink" style="width: 100%; height: 100%" viewBox="0 0 38 38" preserveAspectRatio="none" width="38" height="38"><defs><svg width="38" height="38" fill="none" xmlns="http://www.w3.org/2000/svg" id="svg-1067653396_1230"><path d="m28.364 7.78 1.855 1.856a3.167 3.167 0 0 1 0 4.478L13.594 30.74a3.163 3.163 0 0 1-2.239.927H6.333v-5.021c0-.84.334-1.645.928-2.24L23.886 7.782a3.167 3.167 0 0 1 4.478 0Z" stroke="#737373" stroke-width="3.167px" stroke-linecap="round" stroke-linejoin="round" data-darkreader-inline-stroke="" style="--darkreader-inline-stroke: #9f978b;" fill="none"></path><path d="M7.529 8.166a.452.452 0 0 0-.808 0l-1.034 2.069a.452.452 0 0 1-.202.202L3.416 11.47a.452.452 0 0 0 0 .808l2.069 1.034a.452.452 0 0 1 .202.202l1.034 2.069a.452.452 0 0 0 .808 0l1.034-2.069a.452.452 0 0 1 .202-.202l2.069-1.034a.452.452 0 0 0 0-.808l-2.069-1.034a.452.452 0 0 1-.202-.202L7.53 8.166Zm7.14-4.741a.468.468 0 0 0-.838 0l-.76 1.52a.468.468 0 0 1-.209.21l-1.52.76a.468.468 0 0 0 0 .837l1.52.76c.09.045.164.119.21.21l.76 1.52a.468.468 0 0 0 .837 0l.76-1.52a.468.468 0 0 1 .21-.21l1.519-.76a.468.468 0 0 0 0-.837l-1.52-.76a.468.468 0 0 1-.21-.21l-.76-1.52ZM29.696 24a.452.452 0 0 0-.808 0l-1.034 2.068a.452.452 0 0 1-.202.202l-2.069 1.035a.452.452 0 0 0 0 .807l2.069 1.035a.452.452 0 0 1 .202.202l1.034 2.068a.451.451 0 0 0 .808 0l1.034-2.069a.452.452 0 0 1 .202-.201l2.069-1.035a.451.451 0 0 0 0-.807l-2.069-1.035a.452.452 0 0 1-.202-.202L29.696 24Z" fill="#737373" data-darkreader-inline-fill="" style="--darkreader-inline-fill: #9f978b;"></path></svg></defs><use href="#svg-1067653396_1230"></use></svg>