<svg xmlns="http://www.w3.org/2000/svg" xmlns:xlink="http://www.w3.org/1999/xlink" style="width: 100%; height: 100%" viewBox="0 0 38 38" preserveAspectRatio="none" width="38" height="38"><defs><svg width="38" height="38" fill="none" xmlns="http://www.w3.org/2000/svg" id="svg946727956_1631"><path d="M20.584 28.104a1.583 1.583 0 1 1 3.166 0 1.583 1.583 0 0 1-3.166 0Zm5.541 0a1.583 1.583 0 1 1 3.167 0 1.583 1.583 0 0 1-3.167 0ZM20.584 9.896a1.583 1.583 0 1 1 3.166 0 1.583 1.583 0 0 1-3.166 0Zm.395 22.958a1.188 1.188 0 1 1 2.375 0 1.188 1.188 0 0 1-2.375 0Zm9.896-10.687a1.188 1.188 0 1 1 2.375 0 1.188 1.188 0 0 1-2.375 0Zm0-6.334a1.187 1.187 0 1 1 2.375 0 1.187 1.187 0 0 1-2.375 0ZM20.979 5.146a1.188 1.188 0 1 1 2.375 0 1.188 1.188 0 0 1-2.375 0Zm-1.188 17.021a2.375 2.375 0 1 1 4.75 0 2.375 2.375 0 0 1-4.75 0Zm0-6.334a2.375 2.375 0 1 1 4.75 0 2.375 2.375 0 0 1-4.75 0Zm6.334 6.334a1.583 1.583 0 1 1 3.167 0 1.583 1.583 0 0 1-3.167 0Zm0-6.334a1.583 1.583 0 1 1 3.167 0 1.583 1.583 0 0 1-3.167 0Zm0-5.937a1.583 1.583 0 1 1 3.167 0 1.583 1.583 0 0 1-3.167 0Zm-8.708 0a1.583 1.583 0 1 1-3.167 0 1.583 1.583 0 0 1 3.167 0Zm-5.542 0a1.583 1.583 0 1 1-3.167 0 1.583 1.583 0 0 1 3.167 0Zm5.542 18.208a1.583 1.583 0 1 1-3.167 0 1.583 1.583 0 0 1 3.167 0Zm-.396-22.958a1.188 1.188 0 1 1-2.375 0 1.188 1.188 0 0 1 2.375 0ZM7.125 15.833a1.188 1.188 0 1 1-2.375 0 1.188 1.188 0 0 1 2.375 0Zm0 6.334a1.188 1.188 0 1 1-2.375 0 1.188 1.188 0 0 1 2.375 0Zm9.896 10.687a1.188 1.188 0 1 1-2.375 0 1.188 1.188 0 0 1 2.375 0Zm1.188-17.021a2.375 2.375 0 1 1-4.75 0 2.375 2.375 0 0 1 4.75 0Zm0 6.334a2.375 2.375 0 1 1-4.75 0 2.375 2.375 0 0 1 4.75 0Zm-6.334-6.334a1.583 1.583 0 1 1-3.167 0 1.583 1.583 0 0 1 3.167 0Zm0 6.334a1.583 1.583 0 1 1-3.166 0 1.583 1.583 0 0 1 3.166 0Zm0 5.937a1.583 1.583 0 1 1-3.166 0 1.583 1.583 0 0 1 3.166 0Z" fill="#737373" data-darkreader-inline-fill="" style="--darkreader-inline-fill: #9f978b;"></path></svg></defs><use href="#svg946727956_1631"></use></svg>